<svg width="66" height="50" viewBox="0 0 66 50" fill="none" xmlns="http://www.w3.org/2000/svg">
<path d="M65.6227 30.7817C65.3135 30.3532 64.7159 30.2565 64.2873 30.5652L63.9687 30.795C63.97 30.7129 63.9718 30.631 63.9718 30.5488C63.9718 29.6364 63.6168 28.7778 62.9702 28.1295C62.3238 27.4846 61.4652 27.1296 60.5528 27.1296H60.2697C61.3193 25.1014 61.8523 22.6592 61.8523 19.8399C61.8523 14.3108 59.7797 8.2671 56.5722 4.44313C56.2326 4.0383 55.6293 3.98531 55.2247 4.32501C54.82 4.66455 54.7671 5.26786 55.1066 5.67253C58.0424 9.17245 59.9395 14.7336 59.9395 19.8399C59.9395 22.7827 59.3069 25.232 58.0593 27.1296H56.1656L57.007 26.5306C57.4374 26.2243 57.5378 25.627 57.2315 25.1967C56.9253 24.7664 56.3283 24.6657 55.8976 24.9723L52.8675 27.1296H47.1781C47.7514 24.2253 47.1542 20.9807 45.4215 17.6616C44.1811 15.2864 42.4196 12.9882 40.3932 11.0411C42.4803 5.76193 45.9344 2.38477 49.3 2.38477C50.3164 2.38477 51.3407 2.6805 52.3442 3.26409C52.801 3.52933 53.3864 3.37438 53.652 2.91784C53.9174 2.46115 53.7624 1.87566 53.3057 1.61014C52.0063 0.854776 50.6585 0.471802 49.3 0.471802C45.2283 0.471802 41.3131 3.97049 38.8786 9.6928C38.0495 9.01055 37.1902 8.39016 36.3148 7.84963C32.1944 5.30486 28.2927 4.75571 25.3287 6.30305C22.5949 7.73176 20.8438 10.8998 20.3977 15.2234C20.3433 15.7489 20.7254 16.2188 21.2508 16.2729C21.7775 16.328 22.2463 15.945 22.3003 15.4197C22.6784 11.7556 24.0685 9.12004 26.2142 7.99855C31.4384 5.27121 40.0661 11.5393 43.7257 18.547C45.3534 21.6649 45.8542 24.5481 45.2205 27.1297H34.4966C34.4939 27.1297 34.4914 27.1297 34.4887 27.1297H29.5874L27.9822 25.5245C27.6085 25.1511 27.003 25.1511 26.6295 25.5245C26.2559 25.8981 26.2559 26.5037 26.6295 26.8772L26.8818 27.1296H24.256C23.1906 24.7082 22.4901 21.9276 22.273 19.2302C22.2306 18.7037 21.77 18.31 21.2429 18.3536C20.7164 18.3959 20.3239 18.857 20.3663 19.3836C20.5427 21.5757 20.9951 23.7568 21.6935 25.8153C18.9674 23.4922 15.4066 22.2438 11.7404 22.443C11.3987 22.4616 11.0928 22.6614 10.9387 22.9669C9.50028 25.815 9.09587 29.0298 9.6924 32.0742C9.69801 32.1666 9.71626 32.2552 9.74615 32.3384C9.93358 33.2071 10.204 34.0601 10.5549 34.8856C6.46093 35.5206 2.82541 37.9337 0.646288 41.5282C0.468892 41.8208 0.461496 42.1859 0.626648 42.4857C2.16786 45.2828 4.5972 47.4317 7.45121 48.6562C7.52735 48.7008 7.6068 48.7346 7.68854 48.7563C9.26472 49.3989 10.9643 49.762 12.7122 49.7981C12.8079 49.8001 12.9027 49.801 12.9982 49.801C13.6785 49.801 14.3526 49.7496 15.0166 49.6531C15.0791 49.6494 15.1412 49.6413 15.2015 49.6257C18.0128 49.1784 20.6265 47.8875 22.6899 45.9478C22.7367 45.9548 22.7841 45.9597 22.8329 45.9597H27.1248C27.6531 45.9597 28.0813 45.5316 28.0813 45.0032C28.0813 44.4749 27.6531 44.0467 27.1248 44.0467H24.3785C24.6295 43.7065 24.8673 43.3544 25.0887 42.989C25.0955 42.9778 25.101 42.9661 25.1072 42.9548C25.1129 42.9444 25.1199 42.9351 25.1252 42.9243C27.3531 38.5107 27.1009 33.2172 24.4832 29.0425H28.7948L31.3989 31.6466C31.5856 31.8333 31.8305 31.9267 32.0753 31.9267C32.32 31.9267 32.5648 31.8333 32.7517 31.6466C33.1252 31.2729 33.1252 30.6675 32.7517 30.2939L31.5003 29.0425H34.0965L37.6475 32.5935C37.8343 32.7803 38.0792 32.8736 38.3239 32.8736C38.5686 32.8736 38.8135 32.7803 39.0004 32.5935C39.3739 32.2199 39.3739 31.6143 39.0004 31.2408L36.8022 29.0427H45.939L45.9422 29.0429L45.9454 29.0427H50.1809L48.0927 30.5293C47.6622 30.8356 47.5618 31.4328 47.8681 31.8631C48.0547 32.1254 48.3491 32.265 48.6482 32.265C48.84 32.265 49.0337 32.2073 49.202 32.0875L53.4789 29.0425H58.5577L58.5594 29.0427L58.5615 29.0425H60.5535C60.9558 29.0425 61.3347 29.1993 61.6183 29.482C61.9028 29.7673 62.0595 30.1462 62.0595 30.5487C62.0595 31.1245 62.0231 31.6918 61.9528 32.2489L54.9297 37.3129C54.5013 37.6219 54.4044 38.2197 54.7133 38.6483C54.9004 38.9076 55.193 39.0455 55.49 39.0455C55.6838 39.0455 55.8794 38.9867 56.0487 38.8647L61.269 35.1007C60.2261 38.003 58.2156 40.4475 55.6283 42.0439L44.9617 31.3773C44.588 31.0038 43.9825 31.0038 43.6089 31.3773C43.2353 31.7509 43.2353 32.3564 43.6089 32.73L53.8469 42.968C52.4606 43.5603 50.9556 43.9265 49.3786 44.021L45.2086 39.8513C44.8353 39.4779 44.2296 39.4777 43.8561 39.8514C43.4826 40.225 43.4825 40.8305 43.8562 41.2041L46.6987 44.0464H37.3349L35.8003 42.5119C35.4267 42.1384 34.8211 42.1384 34.4476 42.5119C34.0741 42.8855 34.0741 43.4911 34.4476 43.8646L34.6294 44.0464H31.1097C30.5813 44.0464 30.1532 44.4746 30.1532 45.0029C30.1532 45.5313 30.5813 45.9594 31.1097 45.9594H36.5416L38.6988 48.1167C38.8857 48.3034 39.1305 48.3968 39.3753 48.3968C39.62 48.3968 39.8648 48.3034 40.0517 48.1167C40.4252 47.7431 40.4252 47.1376 40.0517 46.764L39.2471 45.9594H48.5598C50.9711 45.9594 53.2546 45.4022 55.2891 44.4108L56.0925 45.2143C56.2794 45.401 56.5242 45.4943 56.7689 45.4943C57.0137 45.4943 57.2585 45.401 57.4454 45.2143C57.8189 44.8406 57.8189 44.2351 57.4454 43.8615L57.0123 43.4285C60.4608 41.1581 62.9478 37.5421 63.7193 33.3334L65.4063 32.1169C65.8346 31.808 65.9315 31.2103 65.6227 30.7817ZM22.7416 29.867C22.8489 30.0312 22.9504 30.1981 23.0491 30.3663L20.628 35.1705L17.8635 30.9404L19.7982 26.7501C20.9409 27.5966 21.9432 28.6453 22.7416 29.867ZM19.5806 37.0645L14.3075 37.33C13.9521 36.92 13.6214 36.4846 13.3204 36.0239C12.6915 35.0615 12.2116 34.0265 11.881 32.9529L16.8407 32.8719L19.5806 37.0645ZM18.1633 25.7274L16.6287 29.0508L13.5787 24.3837C15.1915 24.5269 16.7487 24.9899 18.1633 25.7274ZM11.9767 25.4291L15.6037 30.9789L11.4563 31.0466C11.1939 29.174 11.3645 27.2471 11.9767 25.4291ZM11.4823 36.6949C11.5593 36.8208 11.638 36.9461 11.719 37.0703C12.144 37.7206 12.6192 38.3278 13.1366 38.8903C13.1743 38.9395 13.2168 38.9846 13.2631 39.0255C14.1222 39.9355 15.094 40.7224 16.149 41.37L11.1166 41.2665L8.74399 37.2983C9.62259 36.9948 10.5404 36.7907 11.4823 36.6949ZM6.97603 38.0689L8.85991 41.22L3.28325 41.1054C4.31089 39.8502 5.56822 38.8216 6.97603 38.0689ZM7.58983 46.6165C5.89559 45.7767 4.4008 44.5488 3.24537 43.0178L9.87356 43.1541L7.58983 46.6165ZM14.3862 47.8072C13.8471 47.8695 13.3011 47.8965 12.751 47.8856C11.6015 47.8618 10.4761 47.6741 9.40343 47.3413L12.1345 43.2005L17.1418 43.3035L14.3862 47.8072ZM16.9944 47.2097L19.3565 43.3491L22.2599 43.4088C22.3196 43.4143 22.3796 43.4182 22.4394 43.4229C21.0001 45.1702 19.107 46.4754 16.9944 47.2097ZM22.3717 41.4979C20.1524 41.2804 18.0425 40.4575 16.2706 39.1466L20.7922 38.9188L22.4791 41.5001L22.3717 41.4979ZM24.0859 40.4619L21.8374 37.0213L24.0691 32.5928C24.9329 35.128 24.9472 37.9028 24.0859 40.4619Z" fill="#253D4E"/>
</svg>
